{"title":"Smokin.Aces.2006.1080p.BRRip.x264.AC3-Kay","uid":9777447,"size":3208716646,"categoryP":"video","categoryS":"hd___movies","magnet":"?xt=urn:btih:bfe9a00238a99a090c7a7373e523549f5b36cd85&amp;dn=Smokin.Aces.2006.1080p.BRRip.x264.AC3-Kay&amp;tr=udp%3A%2F%2Ftracker.openbittorrent.com%3A80&amp;tr=udp%3A%2F%2Fopen.demonii.com%3A1337&amp;tr=udp%3A%2F%2Ftracker.coppersurfer.tk%3A6969&amp;tr=udp%3A%2F%2Fexodus.desync.com%3A6969","seeders":10,"leechers":3,"uploader":"thegame2012","files":-1,"time":1395055486,"description":" &lt;a href=&quot;http://s26.postimg.org/dk1p06j3d/8626_front.jpg&quot; rel=&quot;nofollow&quot; target=&quot;_NEW&quot;&gt;http://s26.postimg.org/dk1p06j3d/8626_front.jpg&lt;/a&gt;\n\n\nSmokin.Aces.2006.1080p.BRRip.x264.AC3-Kay\n\nIncludes Audio Commentary with Robert Frazen and Joe Carnahan on Track Two.\n\n\nGeneral\nFormat                           : Matroska\nFile size                        : 2.96 GiB\nDuration                         : 1h 48mn\nOverall bit rate                 : 3 898 Kbps\n\n\nVideo\nID                               : 1\nFormat                           : AVC\nFormat/Info                      : Advanced Video Codec\nFormat profile                   : &lt;a class=&quot;__cf_email__&quot; href=&quot;/cdn-cgi/l/email-protection&quot; data-cfemail=&quot;743c1d131c3438415a44&quot;&gt;[email&amp;#160;protected]&lt;/a&gt;&lt;script cf-hash='f9e31' type=&quot;text/javascript&quot;&gt;\n/* &lt;![CDATA[ */!function(){try{var t=&quot;currentScript&quot;in document?document.currentScript:function(){for(var t=document.getElementsByTagName(&quot;script&quot;),e=t.length;e--;)if(t[e].getAttribute(&quot;cf-hash&quot;))return t[e]}();if(t&amp;&amp;t.previousSibling){var e,r,n,i,c=t.previousSibling,a=c.getAttribute(&quot;data-cfemail&quot;);if(a){for(e=&quot;&quot;,r=parseInt(a.substr(0,2),16),n=2;a.length-n;n+=2)i=parseInt(a.substr(n,2),16)^r,e+=String.fromCharCode(i);e=document.createTextNode(e),c.parentNode.replaceChild(e,c)}}}catch(u){}}();/* ]]&gt; */&lt;/script&gt;\nFormat settings, CABAC           : Yes\nFormat settings, ReFrames        : 5 frames\nDuration                         : 1h 48mn\nBit rate                         : 3 180 Kbps\nWidth                            : 1 920 pixels\nHeight                           : 816 pixels\nDisplay aspect ratio             : 2.35:1\nFrame rate                       : 23.976 fps\nResolution                       : 8 bits\nColorimetry                      : 4:2:0\nScan type                        : Progressive\nBits/(Pixel*Frame)               : 0.085\nStream size                      : 2.41 GiB (82%)\nWriting library                  : x264 core 133 r2334 a3ac64b\n\n\nAudio #1\nID                               : 2\nFormat                           : AC-3\nFormat/Info                      : Audio Coding 3\nCodec ID                         : A_AC3\nDuration                         : 1h 48mn\nBit rate mode                    : Constant\nBit rate                         : 448 Kbps\nChannel(s)                       : 6 channels\nChannel positions                : Front: L C R, Surround: L R, LFE\nSampling rate                    : 48.0 KHz\nStream size                      : 349 MiB (11%)\nLanguage                         : English\n\nAudio #2\nID                               : 3\nFormat                           : AC-3\nFormat/Info                      : Audio Coding 3\nFormat profile                   : Dolby Digital\nCodec ID                         : A_AC3\nDuration                         : 1h 48mn\nBit rate mode                    : Constant\nBit rate                         : 192 Kbps\nChannel(s)                       : 2 channels\nChannel positions                : L R\nSampling rate                    : 48.0 KHz\nStream size                      : 149 MiB (5%)\nLanguage                         : English\n\n\nScreencaps: &lt;a href=&quot;\nhttp://s26.postimg.org/be7e5ofmx/Smokin_Aces_2006_1080p_BRRip_x264_AC3_Kay_mkv_sn.jpg&quot; rel=&quot;nofollow&quot; target=&quot;_NEW&quot;&gt;\nhttp://s26.postimg.org/be7e5ofmx/Smokin_Aces_2006_1080p_BRRip_x264_AC3_Kay_mkv_sn.jpg&lt;/a&gt; &lt;a href=&quot;\nhttp://s26.postimg.org/3k6ska7u1/Smokin_Aces_2006_1080p_BRRip_x264_AC3_Kay_mkv_sn.jpg&quot; rel=&quot;nofollow&quot; target=&quot;_NEW&quot;&gt;\nhttp://s26.postimg.org/3k6ska7u1/Smokin_Aces_2006_1080p_BRRip_x264_AC3_Kay_mkv_sn.jpg&lt;/a&gt; &lt;a href=&quot;\nhttp://s26.postimg.org/dsuocd6i1/Smokin_Aces_2006_1080p_BRRip_x264_AC3_Kay_mkv_sn.jpg&quot; rel=&quot;nofollow&quot; target=&quot;_NEW&quot;&gt;\nhttp://s26.postimg.org/dsuocd6i1/Smokin_Aces_2006_1080p_BRRip_x264_AC3_Kay_mkv_sn.jpg&lt;/a&gt; &lt;a href=&quot;\nhttp://s26.postimg.org/9v7emyjop/Smokin_Aces_2006_1080p_BRRip_x264_AC3_Kay_mkv_sn.jpg&quot; rel=&quot;nofollow&quot; target=&quot;_NEW&quot;&gt;\nhttp://s26.postimg.org/9v7emyjop/Smokin_Aces_2006_1080p_BRRip_x264_AC3_Kay_mkv_sn.jpg&lt;/a&gt;\n\n\nPlease rate/comment/seed!\n\nThanks\n-Kay","torrent":{"xt":"urn:btih:bfe9a00238a99a090c7a7373e523549f5b36cd85","amp;dn":"Smokin.Aces.2006.1080p.BRRip.x264.AC3-Kay","amp;tr":["udp%3A%2F%2Ftracker.openbittorrent.com%3A80","udp%3A%2F%2Fopen.demonii.com%3A1337","udp%3A%2F%2Ftracker.coppersurfer.tk%3A6969","udp%3A%2F%2Fexodus.desync.com%3A6969"],"infoHash":"bfe9a00238a99a090c7a7373e523549f5b36cd85","infoHashBuffer":{"type":"Buffer","data":[191,233,160,2,56,169,154,9,12,122,115,115,229,35,84,159,91,54,205,133]},"announce":[],"urlList":[]}}